# xmcd
#
# Track frame offsets:
#	150
#	13549
#	33209
#	50249
#	66236
#	80297
#	97940
#	117867
#	134744
#	150946
#	164399
#	181985
#	196690
#
# Disc length: 2858 seconds
#
# Revision: 1
# Processed by: cddbd v1.5.2PL0 Copyright (c) Steve Scherf et al.
# Submitted via: audiograbber 1.83.01
#
DISCID=9f0b280d
DTITLE=Leanne Rimes - Spitfire
DYEAR=2013
DGENRE=Country
TTITLE0=Spitfire
TTITLE1=What Have I Done
TTITLE2=Gasoline and Matches
TTITLE3=Borrowed
TTITLE4=You Ain't Right
TTITLE5=I Do Now
TTITLE6=Where I Stood
TTITLE7=You've Ruined Me
TTITLE8=Bottle
TTITLE9=A Waste Is A Terrible Thing To Mind
TTITLE10=Just A Girl
TTITLE11=God Takes Care of Your Kind
TTITLE12=Who We Really Are
EXTD=
EXTT0=
EXTT1=
EXTT2=
EXTT3=
EXTT4=
EXTT5=
EXTT6=
EXTT7=
EXTT8=
EXTT9=
EXTT10=
EXTT11=
EXTT12=
PLAYORDER=
